<?xml version="1.0" standalone="no"?>
<!DOCTYPE svg PUBLIC "-//W3C//DTD SVG 20010904//EN"
 "http://www.w3.org/TR/2001/REC-SVG-20010904/DTD/svg10.dtd">
<svg version="1.0" xmlns="http://www.w3.org/2000/svg"
 width="161.000000pt" height="88.000000pt" viewBox="0 0 161.000000 88.000000"
 preserveAspectRatio="xMidYMid meet">

<g transform="translate(0.000000,88.000000) scale(0.100000,-0.100000)"
fill="#000000" stroke="none">
<path d="M861 797 c0 -21 -5 -36 -10 -33 -19 12 -40 -7 -55 -49 -10 -31 -11
-45 -3 -48 6 -2 -3 -12 -20 -22 -18 -10 -30 -22 -27 -27 3 -4 25 6 50 22 38
27 44 29 44 12 0 -10 -5 -23 -10 -28 -8 -8 -8 -35 -2 -85 10 -74 40 -164 49
-142 2 7 -1 21 -7 32 -7 14 -7 21 0 21 5 0 10 7 10 15 0 8 9 29 20 47 25 42
25 56 -1 84 -18 19 -19 27 -11 58 6 22 7 38 1 42 -5 3 -10 22 -10 42 -1 20 -5
51 -9 67 -8 30 -8 30 -9 -8z m21 -263 c-6 -49 -22 -52 -22 -5 0 30 4 41 13 38
7 -2 11 -16 9 -33z"/>
<path d="M699 665 c-26 -43 -16 -106 27 -162 33 -44 41 -37 13 12 -13 22 -25
62 -28 99 -3 33 -9 57 -12 51z"/>
<path d="M190 415 c0 -21 -5 -25 -31 -25 -43 0 -89 -50 -89 -96 0 -41 20 -52
61 -37 16 7 29 7 29 2 0 -5 14 -9 30 -9 28 0 42 14 20 22 -5 2 -1 37 9 86 l19
82 -24 0 c-19 0 -24 -5 -24 -25z m-10 -59 c0 -17 -48 -76 -61 -76 -15 0 -10
44 7 68 17 24 54 30 54 8z"/>
<path d="M586 426 c3 -8 -1 -49 -10 -91 -9 -43 -16 -79 -16 -81 0 -2 15 -4 33
-4 25 1 28 3 16 10 -15 9 -15 16 2 87 23 97 24 93 -6 93 -17 0 -23 -4 -19 -14z"/>
<path d="M1058 431 c12 -7 11 -21 -2 -86 -20 -98 -21 -95 10 -95 21 0 24 3 16
13 -8 9 -6 33 8 87 11 41 20 78 20 83 0 4 -15 7 -32 7 -22 0 -29 -3 -20 -9z"/>
<path d="M780 416 c0 -2 9 -25 21 -51 53 -120 -45 -257 -195 -272 -96 -10
-196 30 -196 78 0 10 34 56 75 101 79 87 92 118 50 118 -18 0 -23 -4 -19 -15
7 -17 -23 -68 -35 -61 -5 3 -11 18 -14 34 -6 28 -8 29 -83 36 -61 5 -82 3
-101 -9 -29 -19 -55 -70 -51 -98 4 -29 52 -35 80 -11 14 13 19 14 16 4 -3 -16
25 -25 50 -15 13 5 14 8 3 14 -9 6 -11 19 -4 52 11 55 36 64 52 18 18 -51 13
-71 -24 -105 -65 -59 -36 -123 71 -154 67 -20 201 -10 258 20 117 60 154 184
84 285 -20 30 -38 45 -38 31z m-430 -55 c0 -18 -47 -76 -64 -79 -15 -3 -17 0
-11 20 12 40 35 68 55 68 11 0 20 -4 20 -9z"/>
<path d="M672 365 c-35 -29 -45 -67 -25 -95 20 -28 57 -25 92 8 79 72 14 155
-67 87z m68 -24 c0 -37 -31 -77 -53 -68 -21 8 -21 29 -2 67 21 41 55 41 55 1z"/>
<path d="M952 374 c-12 -8 -22 -10 -22 -5 0 6 -12 11 -27 10 -16 0 -23 -3 -17
-5 11 -5 0 -74 -22 -146 -4 -13 0 -18 15 -18 14 0 21 6 21 20 0 15 7 20 25 20
32 0 91 53 98 88 9 48 -27 67 -71 36z m38 -24 c0 -33 -23 -70 -47 -76 -29 -8
-37 -1 -29 24 7 22 54 72 67 72 5 0 9 -9 9 -20z"/>
<path d="M1312 378 c-19 -19 -14 -42 13 -68 13 -12 22 -27 19 -31 -9 -15 -36
-10 -50 9 -12 16 -13 16 -20 -2 -13 -34 43 -49 84 -20 28 19 28 26 -4 64 -21
24 -24 34 -15 43 10 9 16 8 27 -7 15 -22 30 -16 21 9 -8 18 -58 20 -75 3z"/>
<path d="M1400 374 c0 -8 5 -12 10 -9 6 3 10 10 10 16 0 5 -4 9 -10 9 -5 0
-10 -7 -10 -16z"/>
<path d="M1145 356 c-30 -30 -41 -71 -25 -91 17 -21 32 -19 66 7 23 18 27 19
21 5 -5 -14 -1 -17 26 -17 18 0 27 4 20 8 -9 5 -9 19 -3 47 15 64 14 65 -35
65 -35 0 -52 -6 -70 -24z m85 0 c0 -20 -49 -76 -66 -76 -19 0 -18 40 2 68 17
25 64 31 64 8z"/>
</g>
</svg>
